<?xml version="1.0" standalone="no"?>
<!DOCTYPE svg PUBLIC "-//W3C//DTD SVG 20010904//EN"
 "http://www.w3.org/TR/2001/REC-SVG-20010904/DTD/svg10.dtd">
<svg version="1.0" xmlns="http://www.w3.org/2000/svg"
 width="225.000000pt" height="175.000000pt" viewBox="0 0 225.000000 100.000000"
 preserveAspectRatio="xMidYMid meet">

<g transform="translate(0.000000,150.000000) scale(0.100000,-0.100000)"
fill="#14bf98" stroke="none">
<path d="M995 2101 c-77 -35 -102 -66 -174 -216 -92 -191 -160 -305 -305 -508
-134 -189 -229 -302 -329 -392 -85 -77 -93 -103 -43 -150 l36 -34 0 -315 0
-316 80 0 80 0 1 108 c1 59 1 110 0 114 0 5 341 8 759 8 l759 0 3 -112 3 -113
83 -3 82 -3 0 319 0 318 30 22 c24 18 30 30 30 60 0 31 -7 45 -37 74 -21 20
-56 45 -78 56 -148 74 -395 325 -395 400 0 25 -4 32 -20 32 -11 0 -23 8 -26
18 -3 9 -11 28 -18 42 -7 14 -10 35 -8 48 3 18 10 22 41 22 43 0 75 25 47 36
-14 5 -16 30 -16 194 0 180 1 189 20 195 28 9 27 60 -1 75 -28 16 -120 -29
-156 -76 -34 -46 -61 -143 -75 -281 l-12 -112 -165 2 -166 2 -3 198 -2 197 35
21 c39 23 44 47 17 72 -23 21 -28 21 -77 -2z m373 -558 l-3 -38 -207 -3 -208
-2 0 40 0 40 211 0 210 0 -3 -37z m2 -123 l0 -50 -240 0 -240 0 0 50 0 50 240
0 240 0 0 -50z m0 -140 l0 -50 -270 0 -270 0 0 50 0 50 270 0 270 0 0 -50z
m20 -140 l0 -50 -321 0 -322 0 7 38 c3 20 6 43 6 50 0 9 70 12 315 12 l315 0
0 -50z m78 -172 l3 -68 -401 0 -400 0 0 70 0 70 398 -2 397 -3 3 -67z m252
-104 c0 -103 -4 -164 -10 -164 -6 0 -10 64 -10 171 0 111 3 168 10 164 6 -4
10 -72 10 -171z m136 25 c3 -6 6 -106 6 -223 -1 -182 -3 -211 -17 -214 -13 -3
-15 24 -15 222 0 209 5 249 26 215z m-272 -70 c3 -17 6 -51 6 -75 l0 -44 -515
0 -515 0 0 68 c0 38 3 72 7 75 3 4 232 7 508 7 l503 0 6 -31z m136 -269 l0
-100 -632 2 -633 3 -3 35 c-2 19 -1 63 3 98 l7 62 629 0 629 0 0 -100z"/>
</g>
</svg>
